# xmcd
#
# Track frame offsets:
#	150
#	17433
#	27866
#	48855
#	68213
#	80939
#	98267
#	111861
#	128731
#	142004
#	157159
#	166693
#	179063
#	194467
#	210894
#	228710
#	242767
#	254935
#	268563
#	285756
#	299755
#
# Disc length: 4202 seconds
#
# Revision: 0
# Processed by: cddbd v1.5.2PL0 Copyright (c) Steve Scherf et al.
# Submitted via: FairStars CD Ripper 1.01
#
DISCID=33106815
DTITLE=Ivan Cruz - 25 Años de Éxitos 2
DYEAR=2006
DGENRE=bolero
TTITLE0=con la mano en la biblia
TTITLE1=de carne y hueso
TTITLE2=homenaje a Julio Jaramillo
TTITLE3=copa sobre copa
TTITLE4=un disco más
TTITLE5=dime
TTITLE6=quiero que estes conmigo
TTITLE7=muchas veces por ti lloro
TTITLE8=esta noche
TTITLE9=le hice a Dios una pregunta
TTITLE10=destellos
TTITLE11=y no lo quise creer
TTITLE12=cruel infame
TTITLE13=yo soy
TTITLE14=la quise tanto
TTITLE15=yo se que andabas diciendo
TTITLE16=cuando doblan las campanas
TTITLE17=yo no se si continuar
TTITLE18=tu me has hecho daño
TTITLE19=muchachita
TTITLE20=piensalo
EXTD=
EXTT0=
EXTT1=
EXTT2=
EXTT3=
EXTT4=
EXTT5=
EXTT6=
EXTT7=
EXTT8=
EXTT9=
EXTT10=
EXTT11=
EXTT12=
EXTT13=
EXTT14=
EXTT15=
EXTT16=
EXTT17=
EXTT18=
EXTT19=
EXTT20=
PLAYORDER=
